<svg width="63" height="63" viewBox="0 0 63 63" fill="none" xmlns="http://www.w3.org/2000/svg">
<mask id="mask0_205_237" style="mask-type:luminance" maskUnits="userSpaceOnUse" x="0" y="0" width="63" height="63">
<path d="M63 0H0V63H63V0Z" fill="white"/>
</mask>
<g mask="url(#mask0_205_237)">
<path d="M31.5 62C48.3447 62 62 48.3447 62 31.5C62 14.6553 48.3447 1 31.5 1C14.6553 1 1 14.6553 1 31.5C1 48.3447 14.6553 62 31.5 62Z" fill="#2C3E50" stroke="white" stroke-width="0.9" stroke-miterlimit="10"/>
<path d="M12.7226 40.8703V40.2827C14.1338 40.312 16.309 40.4001 16.3384 37.9897V17.4128C16.309 15.0318 14.1338 15.1198 12.7226 15.1496V14.5616H20.5711L26.4794 33.757L32.4171 14.5616H32.5638V14.5322L37.7961 14.5616V14.5322H41.3826V15.1203C40.383 15.1203 37.7961 15.1203 37.7961 16.943V38.1666C37.7961 40.4298 35.2197 40.8595 34.9886 40.9005H32.7913L28.948 40.8712V40.7056C30.3294 40.7349 32.446 40.4005 32.5634 38.1964V16.6497L26.8901 35.0215L25.0673 40.8712H24.5384L16.8957 16.179V38.0493C16.8957 40.401 19.0416 40.3423 20.4822 40.3125V40.9005L12.7217 40.8712L12.7226 40.8703Z" fill="white" stroke="white" stroke-width="0.225648" stroke-miterlimit="10"/>
<path d="M52.0603 17.8818V18.4107C50.0615 18.352 48.621 18.2929 48.621 20.8797C48.621 25.4067 48.5032 29.9332 48.621 34.4601C48.6503 36.0771 48.6088 38.6964 48.4197 40.0765C47.8185 44.1463 46.9385 47.42 44.1631 50.1165C40.9462 53.2417 36.2676 53.8207 32.2773 52.9497C27.8004 51.9727 24.2523 45.6301 25.4573 47.5409C28.8673 53.0084 36.8354 53.7381 41.0681 48.9467C42.9788 46.7715 43.5353 43.8665 43.6233 40.9561C43.7704 34.0481 43.682 27.0814 43.594 20.1734C43.594 18.3511 41.3307 18.3804 40.1546 18.4098V17.8809H52.0598L52.0603 17.8818Z" fill="white" stroke="white" stroke-width="0.225648" stroke-miterlimit="10"/>
<path d="M34.3757 48.64C35.9638 48.64 37.2513 47.3525 37.2513 45.7643C37.2513 44.1761 35.9638 42.8887 34.3757 42.8887C32.7875 42.8887 31.5 44.1761 31.5 45.7643C31.5 47.3525 32.7875 48.64 34.3757 48.64Z" fill="white" stroke="white" stroke-width="0.225648" stroke-miterlimit="10"/>
</g>
</svg>
